<?xml version="1.0" standalone="no"?>
<!DOCTYPE svg PUBLIC "-//W3C//DTD SVG 20010904//EN"
 "http://www.w3.org/TR/2001/REC-SVG-20010904/DTD/svg10.dtd">
<svg version="1.0" xmlns="http://www.w3.org/2000/svg"
 width="260.000000pt" height="260.000000pt" viewBox="0 0 260.000000 260.000000"
 preserveAspectRatio="xMidYMid meet">
<metadata>
Created by potrace 1.11, written by Peter Selinger 2001-2013
</metadata>
<g transform="translate(0.000000,260.000000) scale(0.100000,-0.100000)"
fill="#000000" stroke="none">
<path d="M0 1300 l0 -1300 1300 0 1300 0 0 1300 0 1300 -1300 0 -1300 0 0
-1300z m1090 865 c0 -3 -29 -108 -65 -233 -36 -125 -65 -230 -65 -234 0 -5 51
-8 113 -8 l112 0 50 178 c27 97 57 205 67 240 l19 62 124 0 c69 0 125 -4 125
-9 0 -7 -101 -370 -126 -453 -5 -16 8 -18 133 -20 l139 -3 -35 -117 -34 -118
-138 0 -138 0 -21 -72 c-12 -40 -30 -100 -40 -133 l-18 -60 139 -3 c77 -1 139
-4 139 -5 0 -1 -16 -54 -34 -117 l-33 -115 -140 -3 -140 -3 -68 -239 -67 -240
-129 0 c-71 0 -129 2 -129 5 0 3 29 108 65 233 36 125 65 230 65 234 0 5 -49
8 -110 8 l-109 0 -9 -33 c-5 -17 -36 -125 -67 -239 l-58 -208 -128 0 c-98 0
-127 3 -124 13 9 28 125 454 125 460 0 4 -61 7 -135 7 -74 0 -135 3 -135 7 0
3 14 57 32 120 l31 113 138 0 138 0 36 118 c20 64 38 125 41 134 5 16 -8 18
-134 20 l-139 3 32 115 31 115 141 3 140 3 68 239 69 240 128 0 c70 0 128 -2
128 -5z m1300 -2 c0 -16 -343 -1208 -349 -1216 -4 -4 -80 -6 -168 -5 l-160 3
174 600 c95 330 176 606 178 613 3 9 45 12 165 12 88 0 160 -3 160 -7z m-459
-1344 c21 -7 52 -27 70 -45 29 -30 34 -42 37 -98 5 -77 -9 -126 -51 -173 -43
-49 -99 -73 -172 -73 -79 0 -143 31 -167 80 -22 44 -23 138 -3 188 44 103 168
156 286 121z"/>
<path d="M885 1438 c-16 -50 -75 -246 -75 -251 0 -4 51 -7 113 -7 l112 0 34
118 c19 64 36 125 39 135 4 15 -6 17 -107 17 -80 0 -113 -3 -116 -12z"/>
</g>
</svg>
